<svg width="48" height="48" viewBox="0 0 48 48" fill="none" xmlns="http://www.w3.org/2000/svg">
<path d="M24 44C12.9593 43.9879 4.01212 35.0407 4 24V23.6C4.21986 12.6091 13.2692 3.85595 24.2613 4.0018C35.2535 4.14764 44.0674 13.1378 43.9956 24.1307C43.9237 35.1236 34.9931 43.9978 24 44ZM24 8.00004C15.1634 8.00004 8 15.1635 8 24C8 32.8366 15.1634 40 24 40C32.8366 40 40 32.8366 40 24C39.9901 15.1676 32.8324 8.00996 24 8.00004ZM21.1 34L18.272 31.17L25.342 24.1L18.272 17.03L21.1 14.2L31 24.1L21.102 34H21.1Z" fill="black"/>
</svg>
