<svg width="48" height="48" viewBox="0 0 48 48" fill="none" xmlns="http://www.w3.org/2000/svg">
<path d="M24 44C12.9543 44 4 35.0457 4 24C4 12.9543 12.9543 4 24 4C35.0457 4 44 12.9543 44 24C43.9879 35.0407 35.0407 43.9879 24 44ZM24 8C15.2108 8.00223 8.06892 15.0937 8.00448 23.8827C7.94004 32.6717 14.9772 39.8671 23.7654 39.9982C32.5536 40.1293 39.8022 33.147 40 24.36V27.926V24C39.9901 15.1676 32.8324 8.00992 24 8ZM26.9 33.8L17 23.9L26.9 14L29.728 16.828L22.656 23.9L29.726 30.972L26.902 33.8H26.9Z" fill="black"/>
</svg>
